<?xml version="1.0" encoding="utf-8"?>
<!-- Generator: Adobe Illustrator 20.0.0, SVG Export Plug-In . SVG Version: 6.00 Build 0)  -->
<!DOCTYPE svg PUBLIC "-//W3C//DTD SVG 1.1//EN" "http://www.w3.org/Graphics/SVG/1.1/DTD/svg11.dtd">
<svg version="1.1" id="Layer_1" xmlns="http://www.w3.org/2000/svg" xmlns:xlink="http://www.w3.org/1999/xlink" x="0px" y="0px"
	 viewBox="0 0 75 90" enable-background="new 0 0 75 90" xml:space="preserve">
<path d="M25,55h5v5h-5V55z M45,55h5v5h-5V55z M35,55h5v5h-5V55z M22.5,65h5v5h-5V65z M47.5,65h5v5h-5V65z M35,65h5v5h-5V65z M20,75
	h5v5h-5V75z M50,75h5v5h-5V75z M35,75h5v5h-5V75z M17.5,85h5v5h-5V85z M15,55h5v5h-5V55z M10,65h5v5h-5V65z M5,75h5v5H5V75z M0,85h5
	v5H0V85z M55,55h5v5h-5V55z M60,65h5v5h-5V65z M65,75h5v5h-5V75z M70,85h5v5h-5V85z M52.5,85h5v5h-5V85z M35,85h5v5h-5V85z M30,0
	v27.5H20c-5.5,0-10,4.5-10,10V50h55V37.5c0-5.5-4.5-10-10-10H45V0H30z M35,5h5v22.5h-5V5z M55,35c1.4,0,2.5,1.1,2.5,2.5v5h-40v-5
	c0-1.4,1.1-2.5,2.5-2.5H55z"/>
</svg>
