<?xml version="1.0" encoding="utf-8"?>
<!-- Generator: Adobe Illustrator 20.0.0, SVG Export Plug-In . SVG Version: 6.00 Build 0)  -->
<!DOCTYPE svg PUBLIC "-//W3C//DTD SVG 1.1//EN" "http://www.w3.org/Graphics/SVG/1.1/DTD/svg11.dtd">
<svg version="1.1" id="Livello_1" xmlns="http://www.w3.org/2000/svg" xmlns:xlink="http://www.w3.org/1999/xlink" x="0px" y="0px"
	 viewBox="0 0 652.9 77.1" enable-background="new 0 0 652.9 77.1" xml:space="preserve">
<path d="M114.8,42.2v3.9h24v15.2h-24v15.8H90.2v-50h48.6v15.1H114.8z M188.6,42.2V27.1h-47.1v50h47.1V64.9h-22.5v-3.5h22.5V46.1
	h-22.5v-3.9H188.6z M346.7,42.2V27.1h-47.1v50h47.1V64.9h-22.5v-3.5h22.5V46.1h-22.5v-3.9H346.7z M349.4,42.2h11.3v34.9h20.3V42.2
	h11.2V27.1h-42.8V42.2z M394.5,42.2h11.2v34.9H426V42.2h11.3V27.1h-42.8V42.2z M243.1,66.2c0-5.5-7.2-11-7.2-11s7.2-3.6,7.2-13.1
	c0-14.9-14.8-14.9-14.8-14.9h-37.2v50h24.6V63.3c0.2-4,5.7-0.6,5.7,2.9h0.2v11h21.5V66.2 M219.6,46.2l-3.9-0.1v-4h3.9
	c1.1,0,1.9,0.9,1.9,2C221.5,45.2,220.7,46.2,219.6,46.2 M290.2,55.1c0,0,7.2,5.5,7.2,11v11H276v-11h-0.2c0-3.4-5.5-6.9-5.7-2.9v13.8
	h-24.6v-50h37.2c0,0,14.8,0,14.8,14.9C297.4,51.6,290.2,55.1,290.2,55.1 M274,46.2c1,0,1.9-0.9,1.9-2c0-1.1-0.9-2-1.9-2h-3.9v4
	L274,46.2 M652.9,31.9v40.6c0,2.5-1.9,4.6-4.4,4.6h-41.4c-1.9,0-3.5-1.3-4.1-3.1c-0.6,1.8-2.2,3.1-4.1,3.1h-38.2
	c-2,0-3.7-1.4-4.2-3.4c-0.5,2-2.2,3.4-4.2,3.4h-40c-2.4,0-4.4-2.1-4.4-4.6h-0.1c0,2.5-2,4.6-4.4,4.6h-37c-2.4,0-4.4-2.1-4.4-4.6
	l-0.2,4.6h-22.1v-50h22.1l0.2,4.8c0-2.5,1.9-4.6,4.4-4.6h37c2.4,0,4.4,2.1,4.4,4.6h0.1c0-2.5,2-4.6,4.4-4.6h40c2,0,3.7,1.5,4.2,3.4
	c0.5-1.9,2.2-3.4,4.2-3.4h38.2c1.9,0,3.5,1.3,4.1,3.1c0.6-1.8,2.2-3.1,4.1-3.1h41.4C650.9,27.3,652.9,29.4,652.9,31.9z M505.5,36
	c0-1.9-1.4-3.4-3.2-3.4h-34.7c-1.8,0-3.2,1.5-3.2,3.4v33.1c0,1.9,1.4,3.4,3.2,3.4h34.7c1.8,0,3.2-1.5,3.2-3.4V55h-18.8v9.4H483V42.2
	h3.7v6.7h18.8V36z M554.5,36c0-1.9-1.4-3.4-3.2-3.4h-37.9c-1.7,0-3.2,1.5-3.2,3.4v5.3h26.7v4.1h-26.7v23.7c0,1.9,1.4,3.4,3.2,3.4
	h37.9c1.8,0,3.2-1.5,3.2-3.4V36z M575.7,45.4v-4.1h25.3l0.2-5.3c0-1.9-1.4-3.4-3.2-3.4h-36.2c-1.8,0-3.2,1.5-3.2,3.4l-0.1,23.4H584
	v4.1h-25.3l0,5.7c0,1.9,1.5,3.4,3.2,3.4H598c1.8,0,3.2-1.5,3.2-3.4l-0.2-23.7H575.7z M649.2,36c0-1.9-1.4-3.4-3.2-3.4h-37.9
	c-1.8,0-3.2,1.5-3.2,3.4v5.3h26.7v4.1h-26.7v23.7c0,1.9,1.4,3.4,3.2,3.4H646c1.8,0,3.2-1.5,3.2-3.4V36z M631.7,55.3h-9.6v5.9h9.6
	V55.3z M536.9,55.3h-9.6v5.9h9.6V55.3z M0,76.8h64.5V27.3L32.2,0L0,27.3v0h29.7v11.8H15.8V43h13.9v10.9H15.8v16.7H0V76.8z"/>
</svg>
